<svg width="203" height="204" viewBox="0 0 203 204" fill="none" xmlns="http://www.w3.org/2000/svg">
<path d="M179.6 101.8H168.3C168.3 101.8 168.3 101.9 168.3 102H179.6C179.6 102 179.6 101.9 179.6 101.8Z" fill="url(#paint0_linear_406_73)"/>
<path d="M101.6 180C58.5003 180 23.6003 145.1 23.6003 102V102.2H0.300293V101.8C0.300293 101.8 0.300293 101.9 0.300293 102C0.300293 158 45.7003 203.3 101.6 203.3C157.5 203.3 134.2 199.2 148.1 192L130.5 174.4C121.6 178 111.8 179.9 101.6 179.9V180Z" fill="#3B5D3A"/>
<path d="M101.6 180C58.5003 180 23.6003 145.1 23.6003 102V102.2H0.300293V101.8C0.300293 101.8 0.300293 101.9 0.300293 102C0.300293 158 45.7003 203.3 101.6 203.3C157.5 203.3 134.2 199.2 148.1 192L130.5 174.4C121.6 178 111.8 179.9 101.6 179.9V180Z" fill="url(#paint1_linear_406_73)"/>
<path d="M34.8003 101.8C34.8003 101.8 34.8003 101.9 34.8003 102C34.8003 138.9 64.7003 168.8 101.6 168.8C138.5 168.8 115.4 167.7 121.7 165.7L101.1 145.1C77.5003 144.8 58.5003 125.7 58.5003 102C58.5003 78.3001 58.5003 101.9 58.5003 101.8H34.8003Z" fill="#D6A76C"/>
<path d="M34.8003 101.8C34.8003 101.8 34.8003 101.9 34.8003 102C34.8003 138.9 64.7003 168.8 101.6 168.8C138.5 168.8 115.4 167.7 121.7 165.7L101.1 145.1C77.5003 144.8 58.5003 125.7 58.5003 102C58.5003 78.3001 58.5003 101.9 58.5003 101.8H34.8003Z" fill="url(#paint2_linear_406_73)"/>
<path d="M23.5002 101.8C23.5002 58.8001 58.5002 23.9001 101.5 23.9001C144.5 23.9001 172.3 52.1001 178.5 89.0001H202C195.7 39.1001 153.1 0.600098 101.5 0.600098C49.9002 0.600098 0.300195 45.8001 0.200195 101.6H23.5002V101.8Z" fill="url(#paint3_radial_406_73)"/>
<path d="M23.5002 101.8C23.5002 58.8001 58.5002 23.9001 101.5 23.9001C144.5 23.9001 172.3 52.1001 178.5 89.0001H202C195.7 39.1001 153.1 0.600098 101.5 0.600098C49.9002 0.600098 0.300195 45.8001 0.200195 101.6H23.5002V101.8Z" fill="url(#paint4_linear_406_73)"/>
<path d="M101.6 58.9003C120.9 58.9003 137.2 71.6003 142.7 89.1003H167.1C161.1 58.4003 134 35.3003 101.6 35.3003C69.2003 35.3003 34.9003 65.1003 34.8003 101.9H58.5003C58.5003 78.2003 77.8003 59.0003 101.6 59.0003V58.9003Z" fill="url(#paint5_radial_406_73)"/>
<path d="M101.6 58.9003C120.9 58.9003 137.2 71.6003 142.7 89.1003H167.1C161.1 58.4003 134 35.3003 101.6 35.3003C69.2003 35.3003 34.9003 65.1003 34.8003 101.9H58.5003C58.5003 78.2003 77.8003 59.0003 101.6 59.0003V58.9003Z" fill="url(#paint6_linear_406_73)"/>
<path d="M179.6 102H120.8L139.8 121.1H201.1C202.8 113.7 202.9 102 202.9 102H179.6Z" fill="#F99C00"/>
<path d="M179.6 102H120.8L139.8 121.1H201.1C202.8 113.7 202.9 102 202.9 102H179.6Z" fill="url(#paint7_linear_406_73)"/>
<path d="M104.3 101.9V132.7C123.8 152 172.5 201.1 172.5 201.1L190.1 183.5L104.4 101.9H104.2H104.3Z" fill="#F99C00"/>
<path d="M104.3 101.9V132.7C123.8 152 172.5 201.1 172.5 201.1L190.1 183.5L104.4 101.9H104.2H104.3Z" fill="url(#paint8_linear_406_73)"/>
<path d="M172.8 133.8H154L157.8 137.6L171.4 151.2L182.7 162.5C189.1 153.9 194.2 144.2 197.7 133.8H172.8Z" fill="#3B5D3A"/>
<path d="M172.8 133.8H154L157.8 137.6L171.4 151.2L182.7 162.5C189.1 153.9 194.2 144.2 197.7 133.8H172.8Z" fill="url(#paint9_linear_406_73)"/>
<path d="M104.3 101.7V101.9H104.5L104.3 101.7Z" fill="#58595B"/>
<path d="M104.3 101.7V101.9H104.5L104.3 101.7Z" fill="url(#paint10_linear_406_73)"/>
<path d="M0.256732 102.022L0.255859 102.522L23.5558 102.563L23.5567 102.063L0.256732 102.022Z" fill="#DCB445"/>
<defs>
<linearGradient id="paint0_linear_406_73" x1="174" y1="214.707" x2="174" y2="-27.5076" gradientUnits="userSpaceOnUse">
<stop stop-color="#A97C50"/>
<stop offset="0.3" stop-color="#CAA048"/>
<stop offset="0.6" stop-color="#E7BF42"/>
<stop offset="0.8" stop-color="#F8D23E"/>
<stop offset="1" stop-color="#FFD93D"/>
</linearGradient>
<linearGradient id="paint1_linear_406_73" x1="74.2003" y1="214.7" x2="74.2003" y2="-27.4997" gradientUnits="userSpaceOnUse">
<stop stop-color="#A97C50"/>
<stop offset="0.3" stop-color="#CAA048"/>
<stop offset="0.6" stop-color="#E7BF42"/>
<stop offset="0.8" stop-color="#F8D23E"/>
<stop offset="1" stop-color="#FFD93D"/>
</linearGradient>
<linearGradient id="paint2_linear_406_73" x1="78.2003" y1="214.7" x2="78.2003" y2="-27.4999" gradientUnits="userSpaceOnUse">
<stop stop-color="#A97C50"/>
<stop offset="0.3" stop-color="#CAA048"/>
<stop offset="0.6" stop-color="#E7BF42"/>
<stop offset="0.8" stop-color="#F8D23E"/>
<stop offset="1" stop-color="#FFD93D"/>
</linearGradient>
<radialGradient id="paint3_radial_406_73" cx="0" cy="0" r="1" gradientUnits="userSpaceOnUse" gradientTransform="translate(101.2 27.7401) scale(79.8 95.76)">
<stop stop-color="#FFD93D"/>
<stop offset="0.2" stop-color="#F8D23E"/>
<stop offset="0.4" stop-color="#E7BF42"/>
<stop offset="0.7" stop-color="#CAA048"/>
<stop offset="1" stop-color="#A97C50"/>
</radialGradient>
<linearGradient id="paint4_linear_406_73" x1="101.2" y1="214.7" x2="101.2" y2="-27.4999" gradientUnits="userSpaceOnUse">
<stop stop-color="#A97C50"/>
<stop offset="0.3" stop-color="#CAA048"/>
<stop offset="0.6" stop-color="#E7BF42"/>
<stop offset="0.8" stop-color="#F8D23E"/>
<stop offset="1" stop-color="#FFD93D"/>
</linearGradient>
<radialGradient id="paint5_radial_406_73" cx="0" cy="0" r="1" gradientUnits="userSpaceOnUse" gradientTransform="translate(100.9 68.5003) scale(52.4 52.4)">
<stop stop-color="#FFD93D"/>
<stop offset="0.2" stop-color="#F8D23E"/>
<stop offset="0.4" stop-color="#E7BF42"/>
<stop offset="0.7" stop-color="#CAA048"/>
<stop offset="1" stop-color="#A97C50"/>
</radialGradient>
<linearGradient id="paint6_linear_406_73" x1="100.9" y1="214.7" x2="100.9" y2="-27.4997" gradientUnits="userSpaceOnUse">
<stop stop-color="#A97C50"/>
<stop offset="0.3" stop-color="#CAA048"/>
<stop offset="0.6" stop-color="#E7BF42"/>
<stop offset="0.8" stop-color="#F8D23E"/>
<stop offset="1" stop-color="#FFD93D"/>
</linearGradient>
<linearGradient id="paint7_linear_406_73" x1="161.8" y1="214.7" x2="161.8" y2="-27.4998" gradientUnits="userSpaceOnUse">
<stop stop-color="#A97C50"/>
<stop offset="0.3" stop-color="#CAA048"/>
<stop offset="0.6" stop-color="#E7BF42"/>
<stop offset="0.8" stop-color="#F8D23E"/>
<stop offset="1" stop-color="#FFD93D"/>
</linearGradient>
<linearGradient id="paint8_linear_406_73" x1="147.2" y1="214.7" x2="147.2" y2="-27.5" gradientUnits="userSpaceOnUse">
<stop stop-color="#A97C50"/>
<stop offset="0.3" stop-color="#CAA048"/>
<stop offset="0.6" stop-color="#E7BF42"/>
<stop offset="0.8" stop-color="#F8D23E"/>
<stop offset="1" stop-color="#FFD93D"/>
</linearGradient>
<linearGradient id="paint9_linear_406_73" x1="175.9" y1="214.7" x2="175.9" y2="-27.4998" gradientUnits="userSpaceOnUse">
<stop stop-color="#A97C50"/>
<stop offset="0.3" stop-color="#CAA048"/>
<stop offset="0.6" stop-color="#E7BF42"/>
<stop offset="0.8" stop-color="#F8D23E"/>
<stop offset="1" stop-color="#FFD93D"/>
</linearGradient>
<linearGradient id="paint10_linear_406_73" x1="104.4" y1="214.707" x2="104.4" y2="-27.5077" gradientUnits="userSpaceOnUse">
<stop stop-color="#A97C50"/>
<stop offset="0.3" stop-color="#CAA048"/>
<stop offset="0.6" stop-color="#E7BF42"/>
<stop offset="0.8" stop-color="#F8D23E"/>
<stop offset="1" stop-color="#FFD93D"/>
</linearGradient>
</defs>
</svg>
