<svg width="35" height="35" viewBox="0 0 35 35" fill="none" xmlns="http://www.w3.org/2000/svg">
<path d="M17.5 33.9062C26.5609 33.9062 33.9062 26.5609 33.9062 17.5C33.9062 8.43908 26.5609 1.09375 17.5 1.09375C8.43908 1.09375 1.09375 8.43908 1.09375 17.5C1.09375 26.5609 8.43908 33.9062 17.5 33.9062Z" fill="#ED4C5C"/>
<path d="M22.5859 21.3281L22.6406 18.375L19.6875 17.5L22.6406 16.625L22.5859 13.6719L24.3906 16.0234L27.3438 15.1484L25.5391 17.5L27.3438 19.8516L24.3906 18.9766L22.5859 21.3281Z" fill="white"/>
<path d="M18.1562 24.0625C14.5469 24.0625 11.6484 21.1094 11.6484 17.5C11.6484 13.8906 14.5469 10.9375 18.1562 10.9375C19.5234 10.9375 20.7812 11.375 21.875 12.0859C20.3984 10.3906 18.2109 9.29688 15.75 9.29688C11.2656 9.29688 7.65625 12.9609 7.65625 17.5C7.65625 22.0391 11.2656 25.7031 15.75 25.7031C18.2109 25.7031 20.3984 24.6094 21.875 22.9141C20.8359 23.625 19.5781 24.0625 18.1562 24.0625Z" fill="white"/>
</svg>
